# Blender v2.81 (sub 16) OBJ File: ''
# www.blender.org
o Cube_Cube.001
v 1.000000 0.999196 -0.968418
v 1.000000 0.938933 -0.968418
v 1.000000 0.999196 0.981093
v 1.000000 0.938934 0.981093
v 0.170513 0.546172 1.160719
v 1.000000 1.000000 -1.000000
v 1.000000 0.523094 -1.000000
v 1.000000 1.000000 1.000000
v 0.240758 0.546172 1.160719
v 3.318358 0.999196 -0.968418
v 3.318358 0.427525 -0.968418
v 3.318358 0.999196 0.981093
v 3.318358 0.427525 0.981093
v 0.253485 0.999999 -4.901820
v 0.473063 0.772947 -5.151032
v 0.249213 0.999999 -4.901820
v 2.159179 0.938934 0.981093
v 2.159179 0.999196 0.981093
v 2.159179 0.999196 -0.968418
v 2.159179 0.938933 -0.968418
v 3.938047 0.427525 -0.968418
v 3.938047 0.999196 -0.968418
v 3.938047 0.999196 0.981093
v 3.938047 0.427525 0.981093
v 4.863924 0.937702 -0.968418
v 4.863924 0.999196 -0.968418
v 4.863924 0.999196 0.981093
v 4.863924 0.937702 0.981093
v 0.724207 0.938933 -3.140180
v 0.724207 0.999195 -3.140180
v 0.746869 0.999195 -3.140180
v 0.746869 0.938933 -3.140180
v 0.020569 0.999999 -7.250261
v 0.020569 0.939937 -7.250261
v 0.245775 0.662045 2.081859
v 0.232572 0.743885 1.948170
v 0.170513 0.662045 2.081859
v 1.000000 0.278646 1.000000
v 0.232572 0.592906 2.402188
v 0.736531 0.648021 -3.075516
v 0.453684 0.999999 -3.324729
v 0.249212 0.999999 -3.324729
v 0.473063 0.999999 -5.151032
v 0.736531 1.000000 -3.075516
v 0.249212 1.024044 -3.324729
v 0.235835 1.019636 -4.901459
v -0.013378 1.019636 -5.150671
v 0.604797 0.710484 -4.113275
v 0.604797 0.999999 -4.113275
v 0.249213 0.999999 -4.113275
v 0.353584 0.999999 -4.113274
v 0.249213 1.110898 -4.113275
v 1.071682 1.478899 -6.849023
v 0.619188 1.268256 -7.379295
v 0.619188 1.290281 -7.379295
v 1.071682 1.494675 -6.849023
v 0.500000 0.278646 1.000000
v 0.205635 0.546172 1.160719
v 0.620379 0.412409 1.080359
v 0.085257 0.412409 1.080359
v 0.352818 0.412410 3.971365
v 0.108997 0.627062 1.170837
v 0.073875 0.627062 1.170837
v -0.011382 0.493300 1.090477
v 0.256179 0.493300 3.981483
v 0.221536 0.565160 1.160790
v 0.124898 0.646050 1.170908
v 0.272081 0.512288 3.981554
v 0.368719 0.431398 3.971437
v -1.000000 0.999196 -0.968418
v -1.000000 0.938933 -0.968418
v -1.000000 0.999196 0.981093
v -1.000000 0.938934 0.981093
v 0.000000 0.523094 -1.000000
v 0.000000 1.000000 1.000000
v -0.170513 0.546172 1.160719
v 0.000000 1.000000 -1.000000
v -1.000000 1.000000 -1.000000
v -1.000000 0.523094 -1.000000
v -1.000000 1.000000 1.000000
v -0.240758 0.546172 1.160719
v -3.318358 0.999196 -0.968418
v -3.318358 0.427525 -0.968418
v -3.318358 0.999196 0.981093
v -3.318358 0.427525 0.981093
v -0.253485 0.999999 -4.901820
v -0.473063 0.772947 -5.151032
v -0.249213 0.999999 -4.901820
v 0.000000 0.772947 -5.151032
v -2.159179 0.938934 0.981093
v -2.159179 0.999196 0.981093
v -2.159179 0.999196 -0.968418
v -2.159179 0.938933 -0.968418
v -3.938047 0.427525 -0.968418
v -3.938047 0.999196 -0.968418
v -3.938047 0.999196 0.981093
v -3.938047 0.427525 0.981093
v -4.863924 0.937702 -0.968418
v -4.863924 0.999196 -0.968418
v -4.863924 0.999196 0.981093
v -4.863924 0.937702 0.981093
v -0.724207 0.938933 -3.140180
v -0.724207 0.999195 -3.140180
v -0.746869 0.999195 -3.140180
v -0.746869 0.938933 -3.140180
v 0.000000 0.939937 -7.250261
v 0.000000 0.999999 -7.250261
v -0.020569 0.999999 -7.250261
v -0.020569 0.939937 -7.250261
v -0.245775 0.662045 2.081859
v -0.232572 0.743885 1.948170
v 0.000000 0.743885 1.948170
v -0.170513 0.662045 2.081859
v -1.000000 0.278646 1.000000
v 0.000000 0.278646 1.000000
v -0.232572 0.592906 2.402188
v 0.000000 0.592906 2.402188
v -0.736531 0.648021 -3.075516
v -0.453684 0.999999 -3.324729
v -0.249212 0.999999 -3.324729
v 0.000000 0.648021 -3.075516
v 0.000000 0.999999 -5.151032
v -0.473063 0.999999 -5.151032
v 0.000000 1.000000 -3.075516
v -0.736531 1.000000 -3.075516
v -0.249212 1.024044 -3.324729
v -0.235835 1.019636 -4.901459
v 0.013378 1.019636 -5.150671
v 0.000000 1.024044 -3.075516
v -0.604797 0.710484 -4.113275
v 0.000000 0.999999 -4.113275
v -0.604797 0.999999 -4.113275
v 0.000000 0.710484 -4.113275
v -0.249213 0.999999 -4.113275
v -0.353584 0.999999 -4.113274
v -0.249213 1.110898 -4.113275
v 0.000000 1.110898 -4.113275
v -1.071682 1.478899 -6.849023
v -0.619188 1.268256 -7.379295
v -0.619188 1.290281 -7.379295
v -1.071682 1.494675 -6.849023
v -0.500000 0.278646 1.000000
v -0.205635 0.546172 1.160719
v -0.620379 0.412409 1.080359
v -0.085257 0.412409 1.080359
v -0.352818 0.412410 3.971365
v -0.108997 0.627062 1.170837
v -0.073875 0.627062 1.170837
v 0.011382 0.493300 1.090477
v -0.256179 0.493300 3.981483
v -0.221536 0.565160 1.160790
v -0.124898 0.646050 1.170908
v -0.272081 0.512288 3.981554
v -0.368719 0.431398 3.971437
vt 0.625000 0.750000
vt 0.625000 1.000000
vt 0.562500 1.000000
vt 0.174600 0.700400
vt 0.325400 0.700400
vt 0.325400 0.700400
vt 0.375000 0.500000
vt 0.125000 0.500000
vt 0.375000 0.500000
vt 0.500000 0.000000
vt 0.375000 0.250000
vt 0.375000 0.000000
vt 0.174600 0.549600
vt 0.375000 0.500000
vt 0.325400 0.549600
vt 0.174600 0.700400
vt 0.375000 0.750000
vt 0.125000 0.750000
vt 0.325400 0.700400
vt 0.125000 0.500000
vt 0.325400 0.549600
vt 0.325400 0.549600
vt 0.174600 0.549600
vt 0.174600 0.549600
vt 0.174600 0.700400
vt 0.500000 0.750000
vt 0.625000 0.750000
vt 0.625000 0.750000
vt 0.446776 0.000000
vt 0.437036 0.000000
vt 0.438111 0.000000
vt 0.875000 0.625000
vt 0.625000 0.750000
vt 0.625000 0.625000
vt 0.325400 0.549600
vt 0.174600 0.549600
vt 0.174600 0.549600
vt 0.325400 0.549600
vt 0.325400 0.700400
vt 0.174600 0.700400
vt 0.174600 0.549600
vt 0.325400 0.549600
vt 0.174600 0.700400
vt 0.174600 0.549600
vt 0.325400 0.700400
vt 0.325400 0.549600
vt 0.875000 0.750000
vt 0.875000 0.625000
vt 0.875000 0.750000
vt 0.625000 0.625000
vt 0.625000 0.250000
vt 0.375000 0.375000
vt 0.375000 0.250000
vt 0.375000 0.250000
vt 0.625000 0.250000
vt 0.625000 0.375000
vt 0.375000 0.324739
vt 0.375000 0.349924
vt 0.375000 0.312915
vt 0.375000 0.362462
vt 0.375000 0.312500
vt 0.375000 0.312708
vt 0.375000 0.262953
vt 0.375000 0.301664
vt 0.375000 0.375000
vt 0.375000 0.000000
vt 0.500000 0.000000
vt 0.500000 0.750000
vt 0.625000 0.750000
vt 0.125000 0.500000
vt 0.375000 0.500000
vt 0.375000 0.000000
vt 0.500000 0.000000
vt 0.419646 0.000000
vt 0.375000 0.000000
vt 0.428341 0.000000
vt 0.438111 0.000000
vt 0.500000 0.000000
vt 0.446776 0.000000
vt 0.455442 0.000000
vt 0.455442 0.000000
vt 0.500000 0.000000
vt 0.500000 0.000000
vt 0.500000 0.000000
vt 0.500000 0.750000
vt 0.125000 0.500000
vt 0.625000 0.750000
vt 0.875000 0.750000
vt 0.875000 0.750000
vt 0.625000 0.750000
vt 0.375000 0.275907
vt 0.375000 0.349924
vt 0.375000 0.312708
vt 0.375000 0.312915
vt 0.375000 0.362462
vt 0.375000 0.312915
vt 0.375000 0.312708
vt 0.375000 0.312915
vt 0.375000 0.312708
vt 0.562500 1.000000
vt 0.625000 1.000000
vt 0.625000 0.750000
vt 0.325400 0.700400
vt 0.174600 0.700400
vt 0.325400 0.700400
vt 0.375000 0.500000
vt 0.125000 0.500000
vt 0.125000 0.500000
vt 0.375000 0.250000
vt 0.375000 0.000000
vt 0.375000 0.500000
vt 0.174600 0.549600
vt 0.325400 0.549600
vt 0.174600 0.700400
vt 0.375000 0.750000
vt 0.325400 0.700400
vt 0.125000 0.500000
vt 0.325400 0.549600
vt 0.325400 0.549600
vt 0.174600 0.549600
vt 0.174600 0.700400
vt 0.000000 0.000000
vt 0.000000 0.000000
vt 0.000000 0.000000
vt 0.625000 0.750000
vt 0.625000 0.750000
vt 0.446776 0.000000
vt 0.437036 0.000000
vt 0.428341 0.000000
vt 0.625000 0.750000
vt 0.174600 0.549600
vt 0.325400 0.549600
vt 0.174600 0.549600
vt 0.174600 0.549600
vt 0.325400 0.549600
vt 0.325400 0.700400
vt 0.174600 0.700400
vt 0.174600 0.549600
vt 0.174600 0.700400
vt 0.325400 0.549600
vt 0.174600 0.549600
vt 0.325400 0.700400
vt 0.325400 0.549600
vt 0.875000 0.750000
vt 0.875000 0.750000
vt 0.625000 0.250000
vt 0.375000 0.250000
vt 0.375000 0.250000
vt 0.625000 0.250000
vt 0.625000 0.375000
vt 0.375000 0.312915
vt 0.375000 0.324739
vt 0.375000 0.301664
vt 0.375000 0.312500
vt 0.375000 0.362462
vt 0.375000 0.312708
vt 0.375000 0.262953
vt 0.375000 0.000000
vt 0.625000 0.750000
vt 0.000000 0.000000
vt 0.000000 0.000000
vt 0.000000 0.000000
vt 0.125000 0.500000
vt 0.438111 0.000000
vt 0.375000 0.000000
vt 0.375000 0.000000
vt 0.419646 0.000000
vt 0.455442 0.000000
vt 0.438111 0.000000
vt 0.446776 0.000000
vt 0.455442 0.000000
vt 0.500000 0.000000
vt 0.000000 0.000000
vt 0.375000 0.500000
vt 0.625000 0.750000
vt 0.875000 0.750000
vt 0.625000 0.750000
vt 0.875000 0.750000
vt 0.375000 0.275907
vt 0.375000 0.312708
vt 0.375000 0.349924
vt 0.375000 0.312915
vt 0.375000 0.349924
vt 0.375000 0.362462
vt 0.375000 0.312708
vt 0.375000 0.312915
vt 0.375000 0.312915
vt 0.375000 0.312708
vt 0.500000 1.000000
vt 0.500000 0.250000
vt 0.500000 0.750000
vt 0.375000 0.500000
vt 0.125000 0.750000
vt 0.000000 0.000000
vn 0.0000 -0.9926 -0.1213
vn 0.0000 0.0000 1.0000
vn 0.9920 0.0000 -0.1259
vn 0.0000 1.0000 -0.0000
vn 1.0000 0.0000 0.0000
vn 1.0000 -0.0001 0.0000
vn 0.0000 -0.0000 -1.0000
vn -0.4036 -0.9149 0.0000
vn 0.0000 -0.9982 -0.0601
vn 0.0000 -1.0000 0.0000
vn 0.4826 -0.8758 0.0000
vn -0.9920 0.0000 0.1260
vn 0.8383 0.0000 -0.5452
vn 0.0000 -0.9969 -0.0793
vn 0.0000 0.9489 0.3156
vn 0.7519 0.5719 0.3279
vn 0.7996 0.1196 0.5885
vn 0.7773 0.0000 0.6291
vn 0.0000 0.9654 0.2608
vn -0.0000 -0.9922 0.1248
vn -0.1711 -0.8399 0.5150
vn -0.2596 -0.9394 0.2238
vn -0.3019 -0.9529 0.0279
vn 0.0000 -0.9775 -0.2110
vn -0.3071 -0.9440 0.1204
vn -0.3676 -0.9272 0.0723
vn -0.5871 -0.7996 -0.1259
vn 0.6498 -0.7429 0.1608
vn 0.7870 -0.6100 0.0921
vn 0.8212 -0.5662 0.0712
vn 0.0770 0.9928 -0.0919
vn 0.0169 0.9938 -0.1100
vn 0.0000 0.9934 -0.1150
vn 0.6338 0.4434 -0.6338
vn -0.9999 -0.0082 0.0127
vn -0.8464 -0.5326 0.0008
vn -0.8264 -0.5630 0.0000
vn 0.7071 0.0000 0.7071
vn 0.8521 0.5234 -0.0014
vn 0.9998 0.0108 -0.0167
vn 0.8264 0.5630 0.0000
vn 0.0724 0.9936 0.0866
vn 0.0162 0.9944 0.1044
vn 0.0831 0.9931 0.0831
vn 0.7607 0.0000 -0.6491
vn 0.4928 -0.8594 -0.1365
vn 0.4946 -0.8570 -0.1445
vn 0.5014 -0.8472 -0.1755
vn -0.2107 0.0000 -0.9775
vn -0.2107 0.0000 -0.9776
vn -0.4491 0.8900 0.0791
vn -0.4472 0.8915 0.0725
vn -0.4541 0.8855 0.0979
vn 0.9431 0.0000 0.3325
vn 0.4395 -0.7190 0.5385
vn 0.4773 -0.7265 0.4943
vn 0.0000 -0.5150 0.8572
vn 0.1769 0.9834 0.0397
vn 0.3119 0.9496 0.0328
vn 0.3381 0.9406 0.0313
vn -0.5686 0.8191 0.0759
vn -0.7644 0.6401 0.0773
vn -0.4150 0.9075 0.0649
vn 0.0000 0.1241 -0.9923
vn 0.2316 0.3883 -0.8920
vn -0.6371 -0.7685 0.0590
vn 0.6420 0.7667 0.0029
vn -0.0595 0.0536 -0.9968
vn -0.7649 0.6403 0.0705
vn 0.7649 -0.6403 -0.0705
vn -0.9920 0.0000 -0.1259
vn -1.0000 -0.0000 0.0000
vn 0.4036 -0.9149 0.0000
vn -0.4826 -0.8758 0.0000
vn 0.9920 0.0000 0.1260
vn -0.8383 0.0000 -0.5452
vn -0.7996 0.1196 0.5885
vn -0.7519 0.5719 0.3279
vn -0.7773 0.0000 0.6291
vn 0.2596 -0.9394 0.2238
vn 0.1711 -0.8399 0.5150
vn 0.3019 -0.9529 0.0279
vn 0.3071 -0.9440 0.1204
vn 0.5871 -0.7996 -0.1259
vn 0.3676 -0.9272 0.0723
vn -0.7870 -0.6100 0.0921
vn -0.6278 -0.7595 0.1702
vn -0.6498 -0.7429 0.1608
vn -0.0169 0.9938 -0.1100
vn -0.0770 0.9928 -0.0919
vn -0.6338 0.4434 -0.6338
vn 0.9999 -0.0082 0.0127
vn 0.8464 -0.5326 0.0008
vn 0.9999 0.0000 0.0129
vn -0.7071 0.0000 0.7071
vn -0.9998 0.0108 -0.0167
vn -0.8521 0.5234 -0.0014
vn -0.8264 0.5630 0.0000
vn -0.0724 0.9936 0.0866
vn -0.0162 0.9944 0.1044
vn 0.0000 0.9940 0.1095
vn -0.7607 0.0000 -0.6491
vn -0.4928 -0.8594 -0.1365
vn -0.4946 -0.8570 -0.1445
vn -0.4715 -0.8803 -0.0526
vn 0.2107 0.0000 -0.9775
vn 0.2107 0.0000 -0.9776
vn 0.4472 0.8915 0.0725
vn 0.4491 0.8900 0.0791
vn 0.4541 0.8855 0.0979
vn -0.9431 0.0000 0.3325
vn -0.4395 -0.7190 0.5385
vn -0.4773 -0.7265 0.4943
vn -0.7214 -0.6893 0.0668
vn -0.1769 0.9834 0.0397
vn -0.3119 0.9496 0.0328
vn 0.0000 0.9989 0.0475
vn 0.7615 0.6432 0.0800
vn 0.5686 0.8191 0.0759
vn -0.2316 0.3883 -0.8920
vn 0.6371 -0.7685 0.0590
vn -0.6420 0.7667 0.0029
vn 0.0595 0.0536 -0.9968
vn 0.7649 0.6403 0.0705
vn -0.7649 -0.6403 -0.0705
vn 0.6944 0.6828 0.2271
vn -0.6446 -0.7414 -0.1866
vn 0.6278 -0.7595 0.1702
vn 0.0884 0.9922 -0.0884
vn -0.9999 0.0000 0.0129
vn 0.9999 0.0000 -0.0170
vn 0.4715 -0.8803 -0.0526
vn -0.4325 0.9014 0.0216
vn 0.7214 -0.6893 0.0668
vn -0.8616 0.5013 0.0797
vn -0.6944 0.6828 0.2271
vn 0.6446 -0.7414 -0.1866
vn -0.8212 -0.5662 0.0712
vn -0.0884 0.9922 -0.0884
vn 0.8264 -0.5630 0.0000
vn -0.9999 0.0000 -0.0170
vn -0.0831 0.9931 0.0831
vn -0.5014 -0.8472 -0.1755
vn 0.4325 0.9014 0.0216
vn -0.3381 0.9406 0.0313
vn 0.8616 0.5013 0.0797
s 1
f 7/1/1 38/2/1 57/3/1
f 17/4/2 12/5/2 18/6/2
f 49/7/3 15/8/3 43/9/3
f 77/10/4 8/11/4 6/12/4
f 2/13/5 6/14/5 1/15/5
f 4/16/5 8/17/5 38/18/5
f 1/15/5 8/17/5 3/19/6
f 4/16/5 7/20/5 2/13/5
f 18/6/4 10/21/4 19/22/4
f 20/23/7 10/21/7 11/24/7
f 20/23/8 13/25/8 17/4/8
f 133/26/9 15/27/9 48/28/9
f 50/29/4 14/30/4 16/31/4
f 2/13/10 17/4/10 4/16/10
f 107/32/7 34/33/7 106/34/7
f 3/19/4 19/22/4 1/15/4
f 4/16/2 18/6/2 3/19/2
f 30/35/7 32/36/7 29/37/7
f 22/38/7 11/24/7 10/21/7
f 23/39/4 10/21/4 12/5/4
f 24/40/2 12/5/2 13/25/2
f 21/41/10 13/25/10 11/24/10
f 26/42/5 28/43/5 25/44/5
f 22/38/7 25/44/7 21/41/7
f 27/45/4 22/38/4 23/39/4
f 28/43/2 23/39/2 24/40/2
f 25/44/11 24/40/11 21/41/11
f 30/35/12 2/13/12 1/15/12
f 31/46/4 1/15/4 19/22/4
f 32/36/13 19/22/13 20/23/13
f 2/13/10 32/36/10 20/23/10
f 33/47/4 122/48/4 43/49/4
f 89/50/14 34/33/14 15/27/14
f 36/51/15 117/52/15 39/53/15
f 36/51/16 38/54/17 8/55/18
f 75/56/19 36/51/19 8/55/19
f 37/57/20 5/58/20 58/59/20
f 60/60/21 57/61/22 61/62/23
f 37/57/24 39/53/24 117/52/24
f 59/63/25 38/54/26 35/64/27
f 37/57/28 115/65/29 60/60/30
f 77/10/4 44/66/4 124/67/4
f 74/68/9 40/69/9 7/1/9
f 6/14/3 40/70/3 44/71/3
f 16/31/4 43/72/4 122/73/4
f 41/74/4 49/75/4 51/76/4
f 41/74/4 124/67/4 44/66/4
f 46/77/31 137/78/32 52/79/33
f 50/29/5 45/80/5 42/81/5
f 122/73/34 46/77/34 16/31/34
f 131/82/35 47/83/36 122/73/37
f 45/80/38 124/67/38 42/81/38
f 46/77/39 50/29/40 16/31/41
f 45/80/42 137/78/43 129/84/44
f 14/30/4 49/75/4 43/72/4
f 42/81/4 51/76/4 50/29/4
f 121/85/9 48/28/9 40/69/9
f 44/71/3 48/86/3 49/7/3
f 53/87/45 55/88/45 56/89/45
f 34/33/46 53/87/47 15/27/48
f 33/47/49 54/90/50 34/33/49
f 56/89/51 33/47/52 43/49/53
f 53/87/54 43/49/54 15/27/54
f 59/63/55 57/61/56 38/54/57
f 9/91/58 61/62/59 59/63/60
f 63/92/61 65/93/62 62/94/63
f 5/58/64 62/94/64 58/59/64
f 64/95/65 5/58/65 60/60/65
f 61/62/66 64/95/66 60/60/66
f 67/96/67 69/97/67 66/98/67
f 67/96/68 58/59/68 62/94/68
f 68/99/69 62/94/63 65/93/62
f 66/98/70 61/62/70 58/59/70
f 142/100/1 114/101/1 79/102/1
f 84/103/2 90/104/2 91/105/2
f 132/106/71 87/107/71 130/108/71
f 80/109/4 77/10/4 78/110/4
f 78/111/72 71/112/72 70/113/72
f 73/114/72 80/115/72 72/116/72
f 80/115/72 70/113/72 72/116/72
f 79/117/72 73/114/72 71/112/72
f 82/118/4 91/105/4 92/119/4
f 93/120/7 82/118/7 92/119/7
f 85/121/73 93/120/73 90/104/73
f 89/122/5 131/123/5 133/124/5
f 87/125/9 133/26/9 130/126/9
f 134/127/4 86/128/4 135/129/4
f 90/104/10 71/112/10 73/114/10
f 109/130/7 107/32/7 106/34/7
f 92/119/4 72/116/4 70/113/4
f 91/105/2 73/114/2 72/116/2
f 105/131/7 103/132/7 102/133/7
f 83/134/7 95/135/7 82/118/7
f 82/118/4 96/136/4 84/103/4
f 84/103/2 97/137/2 85/121/2
f 85/121/10 94/138/10 83/134/10
f 101/139/72 99/140/72 98/141/72
f 95/135/7 98/141/7 99/140/7
f 95/135/4 100/142/4 96/136/4
f 96/136/2 101/139/2 97/137/2
f 97/137/74 98/141/74 94/138/74
f 71/112/75 103/132/75 70/113/75
f 70/113/4 104/143/4 92/119/4
f 92/119/76 105/131/76 93/120/76
f 71/112/10 105/131/10 102/133/10
f 122/48/5 106/34/5 107/32/5
f 122/48/4 108/144/4 123/145/4
f 89/50/14 109/130/14 106/34/14
f 117/52/15 111/146/15 116/147/15
f 114/148/77 111/146/78 80/149/79
f 75/56/19 111/146/19 112/150/19
f 115/65/5 112/150/5 117/52/5
f 143/151/20 113/152/20 110/153/20
f 142/154/80 145/155/81 146/156/82
f 113/152/24 116/147/24 110/153/24
f 144/157/83 110/153/84 114/148/85
f 115/65/86 117/52/87 113/152/88
f 77/10/4 125/158/4 78/110/4
f 118/159/9 74/68/9 79/102/9
f 121/160/5 77/161/5 74/162/5
f 78/111/71 118/163/71 79/117/71
f 88/164/4 123/165/4 86/128/4
f 131/82/5 129/84/5 124/67/5
f 132/166/4 119/167/4 135/129/4
f 119/167/4 124/67/4 120/168/4
f 137/78/89 127/169/90 136/170/33
f 134/127/72 126/171/72 136/170/72
f 122/73/91 127/169/91 128/172/91
f 131/82/92 128/172/93 137/78/94
f 124/67/95 126/171/95 120/168/95
f 134/127/96 127/169/97 88/164/98
f 126/171/99 137/78/100 136/170/101
f 86/128/4 132/166/4 135/129/4
f 120/168/4 135/129/4 119/167/4
f 130/126/9 121/85/9 118/159/9
f 133/124/5 124/173/5 121/160/5
f 125/174/71 130/108/71 118/163/71
f 138/175/102 140/176/102 139/177/102
f 109/130/103 138/175/104 139/177/105
f 108/144/106 139/177/107 140/176/107
f 108/144/108 141/178/109 123/145/110
f 123/145/111 138/175/111 87/125/111
f 144/157/112 142/154/113 146/156/114
f 81/179/115 146/156/116 143/151/117
f 150/180/118 148/181/119 147/182/117
f 76/183/64 147/182/64 148/181/64
f 76/183/120 149/184/120 145/155/120
f 146/156/121 149/184/121 150/180/121
f 154/185/122 152/186/122 151/187/122
f 143/151/123 152/186/123 147/182/123
f 147/182/124 153/188/124 150/180/124
f 146/156/125 151/187/125 143/151/125
f 115/189/1 74/68/1 57/3/1
f 74/68/1 7/1/1 57/3/1
f 17/4/2 13/25/2 12/5/2
f 49/7/3 48/86/3 15/8/3
f 77/10/4 75/190/4 8/11/4
f 2/13/5 7/20/5 6/14/5
f 4/16/5 3/19/6 8/17/5
f 1/15/5 6/14/5 8/17/5
f 4/16/5 38/18/5 7/20/5
f 18/6/4 12/5/4 10/21/4
f 20/23/7 19/22/7 10/21/7
f 20/23/8 11/24/8 13/25/8
f 133/26/9 89/191/9 15/27/9
f 50/29/4 51/76/4 14/30/4
f 2/13/10 20/23/10 17/4/10
f 107/32/7 33/47/7 34/33/7
f 3/19/4 18/6/4 19/22/4
f 4/16/2 17/4/2 18/6/2
f 30/35/7 31/46/7 32/36/7
f 22/38/7 21/41/7 11/24/7
f 23/39/4 22/38/4 10/21/4
f 24/40/2 23/39/2 12/5/2
f 21/41/10 24/40/10 13/25/10
f 26/42/5 27/45/5 28/43/5
f 22/38/7 26/42/7 25/44/7
f 27/45/4 26/42/4 22/38/4
f 28/43/2 27/45/2 23/39/2
f 25/44/11 28/43/11 24/40/11
f 30/35/12 29/37/12 2/13/12
f 31/46/4 30/35/4 1/15/4
f 32/36/13 31/46/13 19/22/13
f 2/13/10 29/37/10 32/36/10
f 33/47/4 107/32/4 122/48/4
f 89/50/14 106/34/14 34/33/14
f 36/51/15 112/150/15 117/52/15
f 36/51/16 39/53/126 38/54/17
f 75/56/19 112/150/19 36/51/19
f 58/59/20 9/91/20 35/64/20
f 35/64/20 37/57/20 58/59/20
f 60/60/21 115/65/57 57/61/22
f 37/57/24 35/64/24 39/53/24
f 39/53/127 35/64/27 38/54/26
f 35/64/27 9/91/25 59/63/25
f 60/60/30 5/58/30 37/57/28
f 37/57/28 117/52/128 115/65/29
f 77/10/4 6/12/4 44/66/4
f 74/68/9 121/85/9 40/69/9
f 6/14/3 7/20/3 40/70/3
f 16/31/4 14/30/4 43/72/4
f 41/74/4 44/66/4 49/75/4
f 41/74/4 42/81/4 124/67/4
f 46/77/31 47/83/129 137/78/32
f 50/29/5 52/79/5 45/80/5
f 122/73/34 47/83/34 46/77/34
f 131/82/35 137/78/130 47/83/36
f 45/80/38 129/84/38 124/67/38
f 46/77/39 52/79/131 50/29/40
f 45/80/42 52/79/101 137/78/43
f 14/30/4 51/76/4 49/75/4
f 42/81/4 41/74/4 51/76/4
f 121/85/9 133/26/9 48/28/9
f 44/71/3 40/70/3 48/86/3
f 53/87/45 54/90/45 55/88/45
f 34/33/46 54/90/132 53/87/47
f 33/47/49 55/88/50 54/90/50
f 56/89/51 55/88/133 33/47/52
f 53/87/54 56/89/54 43/49/54
f 59/63/55 61/62/134 57/61/56
f 9/91/58 58/59/117 61/62/59
f 63/92/61 64/95/135 65/93/62
f 5/58/64 63/92/64 62/94/64
f 64/95/65 63/92/65 5/58/65
f 61/62/66 65/93/66 64/95/66
f 67/96/67 68/99/67 69/97/67
f 67/96/68 66/98/68 58/59/68
f 68/99/69 67/96/69 62/94/63
f 66/98/70 69/97/70 61/62/70
f 79/102/1 74/68/1 142/100/1
f 74/68/1 115/189/1 142/100/1
f 84/103/2 85/121/2 90/104/2
f 132/106/71 123/192/71 87/107/71
f 80/109/4 75/190/4 77/10/4
f 78/111/72 79/117/72 71/112/72
f 73/114/72 114/193/72 80/115/72
f 80/115/72 78/111/72 70/113/72
f 79/117/72 114/193/72 73/114/72
f 82/118/4 84/103/4 91/105/4
f 93/120/7 83/134/7 82/118/7
f 85/121/73 83/134/73 93/120/73
f 89/122/5 122/194/5 131/123/5
f 87/125/9 89/191/9 133/26/9
f 134/127/4 88/164/4 86/128/4
f 90/104/10 93/120/10 71/112/10
f 109/130/7 108/144/7 107/32/7
f 92/119/4 91/105/4 72/116/4
f 91/105/2 90/104/2 73/114/2
f 105/131/7 104/143/7 103/132/7
f 83/134/7 94/138/7 95/135/7
f 82/118/4 95/135/4 96/136/4
f 84/103/2 96/136/2 97/137/2
f 85/121/10 97/137/10 94/138/10
f 101/139/72 100/142/72 99/140/72
f 95/135/7 94/138/7 98/141/7
f 95/135/4 99/140/4 100/142/4
f 96/136/2 100/142/2 101/139/2
f 97/137/74 101/139/74 98/141/74
f 71/112/75 102/133/75 103/132/75
f 70/113/4 103/132/4 104/143/4
f 92/119/76 104/143/76 105/131/76
f 71/112/10 93/120/10 105/131/10
f 122/48/5 89/50/5 106/34/5
f 122/48/4 107/32/4 108/144/4
f 89/50/14 87/125/14 109/130/14
f 117/52/15 112/150/15 111/146/15
f 114/148/77 116/147/136 111/146/78
f 75/56/19 80/149/19 111/146/19
f 115/65/5 75/56/5 112/150/5
f 110/153/20 81/179/20 143/151/20
f 143/151/20 76/183/20 113/152/20
f 142/154/80 115/65/57 145/155/81
f 113/152/24 117/52/24 116/147/24
f 81/179/83 110/153/84 144/157/83
f 110/153/84 116/147/137 114/148/85
f 113/152/88 76/183/138 145/155/138
f 145/155/138 115/65/86 113/152/88
f 77/10/4 124/67/4 125/158/4
f 118/159/9 121/85/9 74/68/9
f 121/160/5 124/173/5 77/161/5
f 78/111/71 125/174/71 118/163/71
f 88/164/4 122/73/4 123/165/4
f 131/82/5 137/78/5 129/84/5
f 132/166/4 125/158/4 119/167/4
f 119/167/4 125/158/4 124/67/4
f 137/78/89 128/172/139 127/169/90
f 134/127/72 120/168/72 126/171/72
f 122/73/91 88/164/91 127/169/91
f 131/82/92 122/73/140 128/172/93
f 124/67/95 129/84/95 126/171/95
f 134/127/96 136/170/141 127/169/97
f 126/171/99 129/84/142 137/78/100
f 86/128/4 123/165/4 132/166/4
f 120/168/4 134/127/4 135/129/4
f 130/126/9 133/26/9 121/85/9
f 133/124/5 131/123/5 124/173/5
f 125/174/71 132/106/71 130/108/71
f 138/175/102 141/178/102 140/176/102
f 109/130/103 87/125/143 138/175/104
f 108/144/106 109/130/106 139/177/107
f 108/144/108 140/176/144 141/178/109
f 123/145/111 141/178/111 138/175/111
f 144/157/112 114/148/57 142/154/113
f 81/179/115 144/157/145 146/156/116
f 150/180/118 149/184/146 148/181/119
f 76/183/64 143/151/64 147/182/64
f 76/183/120 148/181/120 149/184/120
f 146/156/121 145/155/121 149/184/121
f 154/185/122 153/188/122 152/186/122
f 143/151/123 151/187/123 152/186/123
f 147/182/124 152/186/124 153/188/124
f 146/156/125 154/185/125 151/187/125
